# xmcd CD database file
#
# Track frame offsets:
#	150
#	11238
#	19900
#	32551
#	51048
#	59279
#	70114
#	75885
#	87478
#	99619
#	108692
#	113582
#	126588
#	143123
#
# Disc length: 2081 seconds
#
# Revision: 5
# Processed by: cddbd v1.5.2PL0 Copyright (c) Steve Scherf et al.
# Submitted via: CDex 1.51
#
DISCID=ba081f0e
DTITLE=200 ans de musique à Versailles - Vol.01 - Les salons précieux du premier baroque
DYEAR=2007
DGENRE=Baroque
TTITLE0=Antoine Boesset - Air qui produit tant de choses si belles
TTITLE1=Antoine Boesset - Ne délibérons plus
TTITLE2=Antoine Boesset - Jamais n'auray-je le pouvoir
TTITLE3=Robert Ballard - Ballet du Dauphin  (extrait)
TTITLE4=Antoine Boesset - Plaignez la rigueur de mon sort
TTITLE5=Antoine Boesset - Suis-je pas misérable ¿
TTITLE6=Robert Ballard - Entrée
TTITLE7=Antoine Boesset - Ennuis, désespoirs et douleurs
TTITLE8=Antoine Boesset - Du plus doux de ses traits
TTITLE9=Anonyme - Courante
TTITLE10=Anonyme - Volte
TTITLE11=Antoine Boesset - Me veux-tu voir mourir
TTITLE12=Antoine Boesset - Alors que d'un discours hardy
TTITLE13=Antoine Boesset - Heureux séjour de Partenisse
EXTD=YEAR: 2007
EXTT0=
EXTT1=
EXTT2=
EXTT3=
EXTT4=
EXTT5=
EXTT6=
EXTT7=
EXTT8=
EXTT9=
EXTT10=
EXTT11=
EXTT12=
EXTT13=
PLAYORDER=
